<?xml version="1.0" encoding="UTF-8" standalone="no" ?>
<!DOCTYPE svg PUBLIC "-//W3C//DTD SVG 1.1//EN" "http://www.w3.org/Graphics/SVG/1.1/DTD/svg11.dtd">
<svg xmlns="http://www.w3.org/2000/svg" xmlns:xlink="http://www.w3.org/1999/xlink" version="1.1" width="500" height="500" viewBox="0 0 500 500" xml:space="preserve">
<desc>Created with Fabric.js 5.3.0</desc>
<defs>
</defs>
<g transform="matrix(1 0 0 1 250 250)" id="ysFZ6X-mrxIFCk5fIGyRc"  >
<path style="stroke: rgb(98,117,209); stroke-width: 0; stroke-dasharray: none; stroke-linecap: butt; stroke-dashoffset: 0; stroke-linejoin: miter; stroke-miterlimit: 4; fill: rgb(255,243,18); fill-rule: nonzero; opacity: 1;" vector-effect="non-scaling-stroke"  transform=" translate(-104.4349065516, -104.4349015485)" d="M 104.4349 0 C 162.08297 0 208.8698 46.78684 208.8698 104.4349 C 208.8698 162.08297 162.08296 208.8698 104.4349 208.8698 C 46.78683 208.8698 0 162.08296 0 104.4349 C 0 46.78683 46.78684 0 104.4349 0 z" stroke-linecap="round" />
</g>
<g transform="matrix(0.8490462612 0 0 0.8628363876 250 250)" id="_tyNlOQy65dRUF5RIhFdn"  >
<path style="stroke: rgb(98,117,209); stroke-width: 0; stroke-dasharray: none; stroke-linecap: butt; stroke-dashoffset: 0; stroke-linejoin: miter; stroke-miterlimit: 4; fill: rgb(213,202,0); fill-rule: nonzero; opacity: 1;" vector-effect="non-scaling-stroke"  transform=" translate(0, 0)" d="M 0 -104.4349 C 57.64807 -104.4349 104.4349 -57.64806 104.4349 0 C 104.4349 57.64807 57.64806 104.4349 0 104.4349 C -57.64807 104.4349 -104.4349 57.64806 -104.4349 0 C -104.4349 -57.64807 -57.64806 -104.4349 0 -104.4349 z" stroke-linecap="round" />
</g>
<g transform="matrix(0.177190418 0 0 0.567248595 250 250)" id="6dxktGsUxOm4y8-28BgQ7"  >
<path style="stroke: rgb(98,117,209); stroke-width: 0; stroke-dasharray: none; stroke-linecap: butt; stroke-dashoffset: 0; stroke-linejoin: miter; stroke-miterlimit: 4; fill: rgb(255,243,18); fill-rule: nonzero; opacity: 1;" vector-effect="non-scaling-stroke"  transform=" translate(0, 0)" d="M 0 -104.4349 C 113.40104 -104.4349 104.4349 -57.64806 104.4349 0 C 104.4349 57.64807 120.37016 104.4349 0 104.4349 C -120.37016 104.4349 -104.4349 57.64806 -104.4349 0 C -104.4349 -57.64807 -113.40102999999999 -104.4349 0 -104.4349 z" stroke-linecap="round" />
</g>
</svg>